<?xml version="1.0" standalone="no"?>
<!DOCTYPE svg PUBLIC "-//W3C//DTD SVG 20010904//EN" "http://www.w3.org/TR/2001/REC-SVG-20010904/DTD/svg10.dtd">
  <svg version="1.0" xmlns="http://www.w3.org/2000/svg" width="27.000000pt" height="23.000000pt" viewBox="0 0 27.000000 23.000000" preserveAspectRatio="xMidYMid meet">
    <g transform="translate(0.000000,23.000000) scale(0.100000,-0.100000)" fill="#000000" stroke="none">
      <path d="M12 218 c-16 -16 -16 -190 0 -206 16 -16 190 -16 206 0 15 15 17 112 2 103 -5 -3 -10 -26 -10 -51 l0 -44 -95 0 -95 0 0 95 0 95 89 0 c50 0 93 5 96 10 9 15 -178 13 -193 -2z"/>
      <path d="M173 158 l-52 -52 -26 24 c-19 18 -28 21 -37 12 -9 -9 -3 -21 27 -52 l39 -40 68 67 c52 51 65 70 56 80 -16 19 -19 18 -75 -39z"/>
    </g>
  </svg>
