<?xml version="1.0" standalone="no"?>
<!DOCTYPE svg PUBLIC "-//W3C//DTD SVG 20010904//EN" "http://www.w3.org/TR/2001/REC-SVG-20010904/DTD/svg10.dtd">
  <svg version="1.0" xmlns="http://www.w3.org/2000/svg" width="21.000000pt" height="21.000000pt" viewBox="0 0 21.000000 21.000000" preserveAspectRatio="xMidYMid meet">
    <g transform="translate(0.000000,21.000000) scale(0.100000,-0.100000)" fill="#000000" stroke="none">
      <path d="M12 197 c-9 -11 -3 -22 28 -52 l40 -39 -40 -41 c-34 -34 -38 -44 -27 -53 11 -9 22 -3 52 28 l39 40 41 -40 c34 -34 44 -38 53 -27 9 11 3 22 -28 52 l-40 39 40 41 c34 34 38 44 27 53 -11 9 -22 3 -52 -28 l-39 -40 -41 40 c-34
        34 -44 38 -53 27z"/>
    </g>
  </svg>
