<?xml version="1.0" standalone="no"?>
<!DOCTYPE svg PUBLIC "-//W3C//DTD SVG 20010904//EN"
 "http://www.w3.org/TR/2001/REC-SVG-20010904/DTD/svg10.dtd">
  <svg version="1.0" xmlns="http://www.w3.org/2000/svg" width="25.000000pt" height="25.000000pt" viewBox="0 0 25.000000 25.000000" preserveAspectRatio="xMidYMid meet">
    <g transform="translate(0.000000,25.000000) scale(0.100000,-0.100000)" fill="#000000" stroke="none">
      <path d="M70 233 c-92 -47 -87 -180 7 -220 102 -42 202 58 160 160 -28 65 -104 93 -167 60z m115 -48 c34 -33 34 -87 0 -120 -53 -54 -145 -16 -145 60 0 49 36 85 85 85 25 0 44 -8 60 -25z"/>
      <path d="M96 154 c-9 -8 -16 -22 -16 -29 0 -18 27 -45 45 -45 18 0 45 27 45 45 0 18 -27 45 -45 45 -7 0 -21 -7 -29 -16z"/>
    </g>
  </svg>
